<mxfile host="Electron" agent="Mozilla/5.0 (Windows NT 10.0; Win64; x64) AppleWebKit/537.36 (KHTML, like Gecko) draw.io/26.2.2 Chrome/134.0.6998.178 Electron/35.1.2 Safari/537.36" version="26.2.2">
  <diagram name="Architecture" id="7nbDN7W6xbXQoVvUyo8P">
    <mxGraphModel dx="1207" dy="684" grid="1" gridSize="10" guides="1" tooltips="1" connect="1" arrows="1" fold="1" page="1" pageScale="1" pageWidth="827" pageHeight="1169" math="0" shadow="0">
      <root>
        <mxCell id="0" />
        <mxCell id="1" parent="0" />
        <mxCell id="api1" value="pymongo-api" style="shape=ellipse;fillColor=#d5e8d4" parent="1" vertex="1">
          <mxGeometry x="230" y="30" width="120" height="60" as="geometry" />
        </mxCell>
        <mxCell id="api2" value="pymongo-api-2" style="shape=ellipse;fillColor=#d5e8d4" parent="1" vertex="1">
          <mxGeometry x="230" y="470" width="120" height="60" as="geometry" />
        </mxCell>
        <mxCell id="redis" value="redis" style="shape=cylinder;fillColor=#ffe6cc" parent="1" vertex="1">
          <mxGeometry x="364" y="240" width="100" height="60" as="geometry" />
        </mxCell>
        <mxCell id="nginx" value="nginx (gateway)" style="shape=hexagon;fillColor=#dae8fc" parent="1" vertex="1">
          <mxGeometry x="40" y="240" width="60" height="60" as="geometry" />
        </mxCell>
        <mxCell id="consul" value="consul" style="shape=cloud;fillColor=#e1d5e7" parent="1" vertex="1">
          <mxGeometry x="170" y="240" width="120" height="60" as="geometry" />
        </mxCell>
        <mxCell id="mongos" value="mongos" style="shape=hexagon;fillColor=#fff2cc" parent="1" vertex="1">
          <mxGeometry x="520" y="240" width="100" height="60" as="geometry" />
        </mxCell>
        <mxCell id="configsvr" value="configsvr" style="shape=cylinder;fillColor=#f8cecc" parent="1" vertex="1">
          <mxGeometry x="690" y="120" width="100" height="60" as="geometry" />
        </mxCell>
        <mxCell id="shard1" value="shard1RS" style="shape=swimlane;fillColor=#e1f5fe" parent="1" vertex="1">
          <mxGeometry x="680" y="200" width="120" height="100" as="geometry" />
        </mxCell>
        <mxCell id="shard2" value="shard2RS" style="shape=swimlane;fillColor=#e1f5fe" parent="1" vertex="1">
          <mxGeometry x="680" y="320" width="120" height="100" as="geometry" />
        </mxCell>
        <mxCell id="cdn" value="nginx-cdn (CDN)" style="shape=parallelogram;fillColor=#d5e8d4" parent="1" vertex="1">
          <mxGeometry x="20" y="30" width="120" height="60" as="geometry" />
        </mxCell>
        <mxCell id="e1" style="endArrow=block" parent="1" source="nginx" target="api1" edge="1">
          <mxGeometry relative="1" as="geometry" />
        </mxCell>
        <mxCell id="_9KT0s2QFCMJzgs-UoWm-3" value="proxy HTTP-запросов" style="edgeLabel;html=1;align=center;verticalAlign=middle;resizable=0;points=[];" vertex="1" connectable="0" parent="e1">
          <mxGeometry x="-0.0846" relative="1" as="geometry">
            <mxPoint as="offset" />
          </mxGeometry>
        </mxCell>
        <mxCell id="e2" style="endArrow=block" parent="1" source="nginx" target="api2" edge="1">
          <mxGeometry relative="1" as="geometry" />
        </mxCell>
        <mxCell id="_9KT0s2QFCMJzgs-UoWm-4" value="proxy HTTP-запросов" style="edgeLabel;html=1;align=center;verticalAlign=middle;resizable=0;points=[];" vertex="1" connectable="0" parent="e2">
          <mxGeometry x="-0.0683" y="1" relative="1" as="geometry">
            <mxPoint x="1" as="offset" />
          </mxGeometry>
        </mxCell>
        <mxCell id="e3" style="endArrow=block" parent="1" source="api1" target="redis" edge="1">
          <mxGeometry relative="1" as="geometry">
            <Array as="points">
              <mxPoint x="414" y="140" />
            </Array>
          </mxGeometry>
        </mxCell>
        <mxCell id="_9KT0s2QFCMJzgs-UoWm-5" value="&lt;table&gt;&lt;tbody&gt;&lt;tr data-end=&quot;1281&quot; data-start=&quot;1221&quot;&gt;&lt;td data-end=&quot;1281&quot; data-start=&quot;1245&quot; class=&quot;max-w-[calc(var(--thread-content-max-width)*2/3)]&quot;&gt;кеширование (read/write)&lt;/td&gt;&lt;/tr&gt;&lt;/tbody&gt;&lt;/table&gt;&lt;table&gt;&lt;tbody&gt;&lt;tr data-end=&quot;1342&quot; data-start=&quot;1282&quot;&gt;&lt;td data-end=&quot;1306&quot; data-start=&quot;1282&quot; class=&quot;max-w-[calc(var(--thread-content-max-width)*2/3)]&quot;&gt;&lt;/td&gt;&lt;/tr&gt;&lt;/tbody&gt;&lt;/table&gt;" style="edgeLabel;html=1;align=center;verticalAlign=middle;resizable=0;points=[];" vertex="1" connectable="0" parent="e3">
          <mxGeometry x="0.1061" relative="1" as="geometry">
            <mxPoint y="46" as="offset" />
          </mxGeometry>
        </mxCell>
        <mxCell id="e4" style="endArrow=block" parent="1" source="api2" target="redis" edge="1">
          <mxGeometry relative="1" as="geometry">
            <Array as="points">
              <mxPoint x="414" y="410" />
            </Array>
          </mxGeometry>
        </mxCell>
        <mxCell id="_9KT0s2QFCMJzgs-UoWm-6" value="&lt;table&gt;&lt;tbody&gt;&lt;tr data-end=&quot;1281&quot; data-start=&quot;1221&quot;&gt;&lt;td data-end=&quot;1281&quot; data-start=&quot;1245&quot; class=&quot;max-w-[calc(var(--thread-content-max-width)*2/3)]&quot;&gt;кеширование (read/write)&lt;/td&gt;&lt;/tr&gt;&lt;/tbody&gt;&lt;/table&gt;&lt;table&gt;&lt;tbody&gt;&lt;tr data-end=&quot;1342&quot; data-start=&quot;1282&quot;&gt;&lt;td data-end=&quot;1306&quot; data-start=&quot;1282&quot; class=&quot;max-w-[calc(var(--thread-content-max-width)*2/3)]&quot;&gt;&lt;/td&gt;&lt;/tr&gt;&lt;/tbody&gt;&lt;/table&gt;" style="edgeLabel;html=1;align=center;verticalAlign=middle;resizable=0;points=[];" vertex="1" connectable="0" parent="e4">
          <mxGeometry x="0.0366" relative="1" as="geometry">
            <mxPoint y="-42" as="offset" />
          </mxGeometry>
        </mxCell>
        <mxCell id="e5" style="endArrow=block" parent="1" source="api1" target="mongos" edge="1">
          <mxGeometry relative="1" as="geometry">
            <Array as="points">
              <mxPoint x="570" y="60" />
            </Array>
          </mxGeometry>
        </mxCell>
        <mxCell id="_9KT0s2QFCMJzgs-UoWm-7" value="&lt;table&gt;&lt;tbody&gt;&lt;tr data-end=&quot;1342&quot; data-start=&quot;1282&quot;&gt;&lt;td data-end=&quot;1342&quot; data-start=&quot;1306&quot; class=&quot;max-w-[calc(var(--thread-content-max-width)*2/3)]&quot;&gt;запросы к MongoDB&lt;/td&gt;&lt;/tr&gt;&lt;/tbody&gt;&lt;/table&gt;&lt;table&gt;&lt;tbody&gt;&lt;tr data-end=&quot;1403&quot; data-start=&quot;1343&quot;&gt;&lt;td data-end=&quot;1367&quot; data-start=&quot;1343&quot; class=&quot;max-w-[calc(var(--thread-content-max-width)*2/3)]&quot;&gt;&lt;/td&gt;&lt;/tr&gt;&lt;/tbody&gt;&lt;/table&gt;" style="edgeLabel;html=1;align=center;verticalAlign=middle;resizable=0;points=[];" vertex="1" connectable="0" parent="e5">
          <mxGeometry x="-0.0753" y="-1" relative="1" as="geometry">
            <mxPoint x="58" y="40" as="offset" />
          </mxGeometry>
        </mxCell>
        <mxCell id="e6" style="endArrow=block" parent="1" source="api2" target="mongos" edge="1">
          <mxGeometry relative="1" as="geometry">
            <Array as="points">
              <mxPoint x="570" y="500" />
            </Array>
          </mxGeometry>
        </mxCell>
        <mxCell id="_9KT0s2QFCMJzgs-UoWm-8" value="&lt;table&gt;&lt;tbody&gt;&lt;tr data-end=&quot;1342&quot; data-start=&quot;1282&quot;&gt;&lt;td data-end=&quot;1342&quot; data-start=&quot;1306&quot; class=&quot;max-w-[calc(var(--thread-content-max-width)*2/3)]&quot;&gt;запросы к MongoDB&lt;/td&gt;&lt;/tr&gt;&lt;/tbody&gt;&lt;/table&gt;&lt;table&gt;&lt;tbody&gt;&lt;tr data-end=&quot;1403&quot; data-start=&quot;1343&quot;&gt;&lt;td data-end=&quot;1367&quot; data-start=&quot;1343&quot; class=&quot;max-w-[calc(var(--thread-content-max-width)*2/3)]&quot;&gt;&lt;/td&gt;&lt;/tr&gt;&lt;/tbody&gt;&lt;/table&gt;" style="edgeLabel;html=1;align=center;verticalAlign=middle;resizable=0;points=[];" vertex="1" connectable="0" parent="e6">
          <mxGeometry x="0.3165" y="-2" relative="1" as="geometry">
            <mxPoint x="16" y="-20" as="offset" />
          </mxGeometry>
        </mxCell>
        <mxCell id="e7" style="endArrow=block;exitX=0.729;exitY=0.019;exitDx=0;exitDy=0;exitPerimeter=0;" parent="1" source="mongos" target="configsvr" edge="1">
          <mxGeometry relative="1" as="geometry">
            <mxPoint x="640" y="188.57142857142856" as="sourcePoint" />
          </mxGeometry>
        </mxCell>
        <mxCell id="e8" style="endArrow=block;exitX=1;exitY=0.5;exitDx=0;exitDy=0;" parent="1" source="mongos" target="shard1" edge="1">
          <mxGeometry relative="1" as="geometry">
            <mxPoint x="640" y="223.33333333333337" as="sourcePoint" />
          </mxGeometry>
        </mxCell>
        <mxCell id="e9" style="endArrow=block;exitX=0.746;exitY=1.026;exitDx=0;exitDy=0;exitPerimeter=0;" parent="1" source="mongos" target="shard2" edge="1">
          <mxGeometry relative="1" as="geometry" />
        </mxCell>
        <mxCell id="e10" style="endArrow=block" parent="1" source="consul" target="api1" edge="1">
          <mxGeometry relative="1" as="geometry" />
        </mxCell>
        <mxCell id="_9KT0s2QFCMJzgs-UoWm-12" value="Service Discovery" style="edgeLabel;html=1;align=center;verticalAlign=middle;resizable=0;points=[];" vertex="1" connectable="0" parent="e10">
          <mxGeometry x="-0.6138" y="1" relative="1" as="geometry">
            <mxPoint as="offset" />
          </mxGeometry>
        </mxCell>
        <mxCell id="e11" style="endArrow=block" parent="1" source="consul" target="api2" edge="1">
          <mxGeometry relative="1" as="geometry" />
        </mxCell>
        <mxCell id="_9KT0s2QFCMJzgs-UoWm-11" value="Service Discovery" style="edgeLabel;html=1;align=center;verticalAlign=middle;resizable=0;points=[];" vertex="1" connectable="0" parent="e11">
          <mxGeometry x="-0.4802" y="-1" relative="1" as="geometry">
            <mxPoint as="offset" />
          </mxGeometry>
        </mxCell>
        <mxCell id="e12" style="endArrow=block" parent="1" source="cdn" target="nginx" edge="1">
          <mxGeometry relative="1" as="geometry" />
        </mxCell>
        <mxCell id="_9KT0s2QFCMJzgs-UoWm-1" value="&lt;table&gt;&lt;tbody&gt;&lt;tr&gt;&lt;td data-end=&quot;1123&quot; data-start=&quot;1099&quot; class=&quot;max-w-[calc(var(--thread-content-max-width)*2/3)]&quot;&gt;&lt;/td&gt;&lt;/tr&gt;&lt;/tbody&gt;&lt;/table&gt;&lt;table&gt;&lt;tbody&gt;&lt;tr&gt;&lt;td data-end=&quot;1159&quot; data-start=&quot;1123&quot; class=&quot;max-w-[calc(var(--thread-content-max-width)*2/3)]&quot;&gt;отдать статику&lt;/td&gt;&lt;/tr&gt;&lt;/tbody&gt;&lt;/table&gt;" style="edgeLabel;html=1;align=center;verticalAlign=middle;resizable=0;points=[];" vertex="1" connectable="0" parent="e12">
          <mxGeometry x="-0.0935" y="-1" relative="1" as="geometry">
            <mxPoint x="6" y="-37" as="offset" />
          </mxGeometry>
        </mxCell>
      </root>
    </mxGraphModel>
  </diagram>
</mxfile>
